<?xml version="1.0" encoding="utf-8"?>
<!-- Generator: Adobe Illustrator 16.0.0, SVG Export Plug-In . SVG Version: 6.00 Build 0)  -->
<!DOCTYPE svg PUBLIC "-//W3C//DTD SVG 1.1//EN" "http://www.w3.org/Graphics/SVG/1.1/DTD/svg11.dtd">
<svg version="1.1" id="Layer_1" xmlns="http://www.w3.org/2000/svg" xmlns:xlink="http://www.w3.org/1999/xlink" x="0px" y="0px"
	 width="52.021px" height="52.02px" viewBox="0 0 52.021 52.02" style="enable-background:new 0 0 52.021 52.02;"
	 xml:space="preserve">
<g>
	<g>
		<path style="fill:#E52326;" d="M26.01,50.499c-13.693,0-24.833-11.141-24.833-24.834c0-13.693,11.14-24.833,24.833-24.833
			c13.693,0,24.834,11.14,24.834,24.833C50.844,39.358,39.703,50.499,26.01,50.499z"/>
		<path style="fill:#FFFFFF;" d="M26.01,1.832c13.163,0,23.834,10.67,23.834,23.833c0,13.162-10.671,23.834-23.834,23.834
			S2.177,38.827,2.177,25.665C2.177,12.501,12.847,1.832,26.01,1.832 M26.01-0.168c-14.244,0-25.833,11.589-25.833,25.833
			c0,14.245,11.589,25.834,25.833,25.834c14.245,0,25.834-11.589,25.834-25.834C51.844,11.42,40.255-0.168,26.01-0.168L26.01-0.168z
			"/>
	</g>
	<g>
		<path style="fill:#FFFFFF;" d="M4.5,26.766c-0.697-2.348,0.121-4.356,2.204-4.975c1.623-0.481,2.665,0.373,3.313,1.208
			l-1.335,1.11c-0.375-0.541-0.915-0.843-1.49-0.673c-0.943,0.281-1.193,1.419-0.793,2.767c0.399,1.346,1.231,2.163,2.174,1.882
			c0.587-0.174,0.87-0.784,0.857-1.456l1.736,0.198c-0.076,1.049-0.47,2.419-2.104,2.904C6.979,30.349,5.193,29.101,4.5,26.766z"/>
		<path style="fill:#FFFFFF;" d="M11.059,24.817c-0.687-2.312,0.098-4.35,2.169-4.964c2.072-0.616,3.841,0.662,4.528,2.975
			c0.688,2.313-0.098,4.35-2.169,4.964S11.746,27.13,11.059,24.817z M15.869,23.389c-0.396-1.335-1.208-2.17-2.152-1.891
			c-0.932,0.277-1.156,1.42-0.759,2.754c0.393,1.324,1.208,2.171,2.14,1.895C16.042,25.867,16.261,24.711,15.869,23.389z"/>
		<path style="fill:#FFFFFF;" d="M25.487,24.701l-1.353-4.557l-0.201,5.019l-0.723,0.214l-2.896-4.098l1.353,4.557l-1.864,0.553
			l-2.279-7.674l2.473-0.735l2.438,3.445l0.173-4.222l2.451-0.728l2.28,7.675L25.487,24.701z"/>
		<path style="fill:#FFFFFF;" d="M28.562,23.788l-2.28-7.675l1.863-0.553l2.28,7.675L28.562,23.788z"/>
		<path style="fill:#FFFFFF;" d="M35.833,21.628l-3.522-3.349l1.199,4.04l-1.864,0.553l-2.28-7.675l1.899-0.563l3.34,3.191
			l-1.142-3.844l1.853-0.55l2.279,7.676L35.833,21.628z"/>
		<path style="fill:#FFFFFF;" d="M37.367,17.003c-0.715-2.405,0.167-4.37,2.203-4.974c1.438-0.428,2.556,0.217,3.251,1.125
			l-1.315,1.129c-0.336-0.451-0.86-0.784-1.447-0.61c-0.861,0.256-1.247,1.235-0.793,2.766c0.453,1.529,1.312,2.14,2.174,1.883
			c0.427-0.126,0.769-0.404,0.914-0.672l-0.249-0.841l-1.254,0.373l-0.485-1.635l3.002-0.891l0.955,3.209
			c-0.459,0.988-1.196,1.746-2.395,2.102C39.892,20.573,38.077,19.396,37.367,17.003z"/>
		<path style="fill:#FFFFFF;" d="M14.687,39.493l0.461-1.688c0.592,0.35,1.371,0.482,2.119,0.26
			c0.541-0.162,0.792-0.536,0.679-0.917c-0.328-1.103-3.598,0.367-4.391-2.303c-0.365-1.23,0.255-2.641,1.993-3.157
			c0.966-0.287,1.922-0.232,2.722,0.144l-0.453,1.637c-0.602-0.298-1.27-0.311-1.856-0.138c-0.472,0.142-0.653,0.456-0.551,0.804
			c0.301,1.012,3.603-0.308,4.368,2.27c0.434,1.461-0.284,2.752-2.022,3.269C16.514,40.041,15.515,39.922,14.687,39.493z"/>
		<path style="fill:#FFFFFF;" d="M19.857,34.727c-0.687-2.312,0.098-4.349,2.169-4.964s3.842,0.661,4.527,2.974
			c0.687,2.314-0.098,4.351-2.169,4.965C22.313,38.318,20.544,37.041,19.857,34.727z M24.666,33.298
			c-0.396-1.335-1.208-2.17-2.151-1.891c-0.932,0.276-1.156,1.421-0.759,2.756c0.393,1.322,1.207,2.169,2.139,1.892
			C24.84,35.777,25.06,34.623,24.666,33.298z"/>
		<path style="fill:#FFFFFF;" d="M27.142,32.564c-0.688-2.312,0.098-4.35,2.17-4.964c2.07-0.616,3.84,0.662,4.527,2.975
			c0.687,2.313-0.099,4.348-2.17,4.964C29.598,36.153,27.828,34.876,27.142,32.564z M31.952,31.135
			c-0.396-1.334-1.209-2.171-2.152-1.89c-0.933,0.276-1.155,1.419-0.76,2.754c0.395,1.323,1.209,2.171,2.141,1.894
			C32.124,33.613,32.345,32.458,31.952,31.135z"/>
		<path style="fill:#FFFFFF;" d="M40.073,32.891l-3.521-3.348l1.197,4.039l-1.861,0.555l-2.28-7.676l1.899-0.564l3.338,3.191
			l-1.143-3.844l1.853-0.55l2.281,7.675L40.073,32.891z"/>
	</g>
</g>
</svg>
