<?xml version="1.0" encoding="utf-8"?>
<!-- Generator: Adobe Illustrator 16.0.0, SVG Export Plug-In . SVG Version: 6.00 Build 0)  -->
<!DOCTYPE svg PUBLIC "-//W3C//DTD SVG 1.1//EN" "http://www.w3.org/Graphics/SVG/1.1/DTD/svg11.dtd">
<svg version="1.1" id="Layer_1" xmlns="http://www.w3.org/2000/svg" xmlns:xlink="http://www.w3.org/1999/xlink" x="0px" y="0px"
	 width="40px" height="31.665px" viewBox="0 0 40 31.665" style="enable-background:new 0 0 40 31.665;" xml:space="preserve">
<g>
	<g>
		<path style="fill:#B2BCE0;" d="M5.76,13.961c0.639-0.718,1.395-2.481,6.844-1.699c5.451,0.782,6.175,0.409,8.55-0.46
			c2.374-0.869,4.501-4.941,5.269-5.869c0.739-0.895,2.976-3.06,2.976-3.06s0.647-2.602,1.334-2.839s0.526,2.252,0.526,2.252h0.257
			c0,0,1.289-2.061,1.833-2.268s-0.174,1.378,0.055,2.421c0.716,0.212,1.317,1.24,1.317,1.24s1.859,1.808,2.26,2.55
			c0.401,0.741,1.095,1.333,0.771,2.904c-0.284,1.393-0.599,1.661-1.285,2.251c-0.438-0.349-0.739-0.384-0.739-0.384
			s-0.376,0.081-1.465,0.211c-1.427,0.172-2.489-0.122-2.861-0.773c0,1.038-0.715,4.328-0.715,4.328s0.039,7.542,0.019,8.571v7.086
			c0,0,0.154,1.203-0.296,1.203c-0.578,0-1.408,0-1.408,0s-0.292,0.057-0.458-1.104c-0.164-1.158-1.18-7.213-1.18-7.213
			s-0.139-0.189-0.422-0.195c-0.285-0.004-0.519-0.006-0.519-0.006s-0.468-0.17-0.473,0.203c-0.004,0.371,0,7.701,0,7.701
			s-0.021,0.57-0.488,0.57c-0.471,0-1.128,0-1.128,0s-0.479-0.027-0.56-0.971c-0.1-1.164-1.123-6.918-1.123-6.918
			s0.089-0.812-0.781-0.576c-5.467,1.479-8.934,0-8.934,0s-0.504-0.135-0.554,0.51c-0.051,0.641-0.639,7.109-0.639,7.109
			s0.05,0.889-0.512,0.846h-1.043c0,0-0.402-0.094-0.423-0.818c-0.029-1.027-0.532-6.98-0.532-6.98s0.103-0.672-0.324-0.67
			c-0.426,0-0.94,0.004-0.94,0.004s-0.144,0.166-0.203,0.654c-0.061,0.488-1.007,7.084-1.007,7.084s-0.025,0.77-0.356,0.727H4.867
			c0,0-0.288,0.043-0.215-1.307c0.025-0.461,0.092-0.455-0.009-11.877c0,0-0.008-2.247,0.46-3.202L5.76,13.961z"/>
		<path style="fill:#CED3EA;" d="M39.671,8.927c0,0,1.385,2.959-1.583,2.977c-1.307-0.338-1.621-0.518-1.621-0.518
			s0.314-1.124,0.772-1.835c0.459-0.713,0.573-1.275,0.4-1.809c-0.172-0.534-1.333-2.401-1.333-2.401S39.07,7.356,39.671,8.927z"/>
		<ellipse style="fill:#264297;" cx="38.898" cy="9.253" rx="0.287" ry="0.297"/>
		<ellipse style="fill:#264297;" cx="34.264" cy="6.556" rx="0.629" ry="0.651"/>
		<path style="fill:#445CA9;" d="M30.974,4.511c0,0-0.019-0.501-0.046-1.252c-0.015-0.375-0.031-0.812-0.05-1.28
			c-0.012-0.233-0.027-0.473-0.06-0.709c-0.015-0.107-0.045-0.259-0.071-0.295c-0.02-0.009,0.067,0.05,0.112,0
			c-0.02,0.022-0.048,0.046-0.059,0.067c-0.011,0.047-0.026,0.058-0.046,0.124c-0.164,0.446-0.254,0.948-0.337,1.403
			c-0.077,0.46-0.153,0.891-0.196,1.262c-0.043,0.371-0.083,0.681-0.091,0.9c-0.009,0.218,0.013,0.343,0.013,0.343
			s-0.038-0.121-0.057-0.341c-0.017-0.22-0.035-0.537-0.015-0.915C30.094,3.441,30.12,3,30.191,2.532
			c0.073-0.468,0.144-0.963,0.314-1.463c0.015-0.054,0.07-0.15,0.111-0.216c0.023-0.031,0.044-0.047,0.067-0.072
			c0.089-0.098,0.256-0.014,0.266,0.035c0.103,0.18,0.088,0.286,0.115,0.42c0.026,0.253,0.037,0.497,0.042,0.733
			c0.012,0.473-0.016,0.914-0.03,1.289C31.031,4.011,30.974,4.511,30.974,4.511z"/>
		<path style="fill:#445CA9;" d="M33.102,0.862c0,0-0.048,0.103-0.121,0.245c-0.074,0.141-0.197,0.309-0.301,0.482
			c-0.247,0.325-0.427,0.676-0.423,0.697c0,0-0.005-0.027-0.015-0.073c0-0.045-0.037-0.128-0.013-0.208
			c0.022-0.078,0.024-0.19,0.075-0.279c0.048-0.093,0.093-0.196,0.154-0.286c0.129-0.178,0.276-0.335,0.409-0.433
			C33,0.91,33.102,0.862,33.102,0.862z"/>
		<path style="fill:#5567AF;" d="M34.467,3.307l1.146,1.767l-1.814-1.415l0.108,1.415l-1.132-1.415v1.187l-1.688-0.997
			c0,0-0.081-1.562,0.543-1.562C32.257,2.287,33.81,1.927,34.467,3.307z"/>
	</g>
	<path style="fill:#B2BCE0;" d="M1.945,21.657l-0.792-0.715c0.682-0.756,1.129-1.492,1.408-2.318
		c0.074-0.248,0.131-0.514,0.188-0.777c0.113-0.525,0.229-1.064,0.506-1.602c0.547-1.102,1.438-1.731,2.298-2.342
		c0.432-0.305,0.878-0.621,1.267-0.992l0.736,0.771c-0.445,0.424-0.924,0.762-1.386,1.09c-0.788,0.559-1.533,1.086-1.964,1.953
		c-0.215,0.418-0.312,0.869-0.415,1.344c-0.063,0.293-0.126,0.586-0.215,0.881C3.244,19.935,2.727,20.788,1.945,21.657z"/>
	<path style="fill:#5567AF;" d="M2.114,20.28c0,0,0.342,2.055-1.085,3.572c-0.193,0.031,0.051-0.916,0.051-0.916l-0.34,0.615
		c0,0-0.234-0.133-0.05-0.941c0.182-0.809-0.656,1.08-0.656,1.08s-0.192-1.133,0.482-2.129C1.189,20.562,2.114,20.28,2.114,20.28z"
		/>
	<path style="fill:#5567AF;" d="M29.301,2.968c0,0-1.823,1.352-3.094,3.256c-1.272,1.905-2.685,3.789-3.117,4.205s0,2.468,0,2.468
		l2.004-2.062l-0.285,2.062l2.085-3.645l0.379,1.583l0.143-3.627l1.517,3.087L28.41,6.81l1.697-0.59l-0.561-1.472l-0.148-1.875"/>
</g>
</svg>
