<?xml version="1.0"?>
<svg xmlns="http://www.w3.org/2000/svg" version="1.1" viewBox="0 0 333.61749 333.61749"><path transform="matrix(1.25,0,0,-1.25,-215.33617,550.80875)" style="fill:#bbbdc0;stroke:none" d="m 424.43294,440.647 -237.434,0 c -8.137,0 -14.73,-6.593 -14.73,-14.73 l 0,-237.434 c 0,-8.135 6.593,-14.73 14.73,-14.73 l 127.826,0 0,103.355 -34.781,0 0,40.28 34.781,0 0,29.705 c 0,34.473 21.055,53.244 51.807,53.244 14.73,0 27.391,-1.097 31.08,-1.587 l 0,-36.026 -21.328,-0.01 c -16.725,0 -19.963,-7.947 -19.963,-19.609 l 0,-25.717 39.887,0 -5.194,-40.28 -34.693,0 0,-103.355 68.012,0 c 8.135,0 14.73,6.595 14.73,14.73 l 0,237.434 c 0,8.137 -6.595,14.73 -14.73,14.73"/></svg>
