<?xml version="1.0" encoding="utf-8"?>
<!-- Generator: Adobe Illustrator 16.0.0, SVG Export Plug-In . SVG Version: 6.00 Build 0)  -->
<!DOCTYPE svg PUBLIC "-//W3C//DTD SVG 1.1//EN" "http://www.w3.org/Graphics/SVG/1.1/DTD/svg11.dtd">
<svg version="1.1" id="Layer_1" xmlns="http://www.w3.org/2000/svg" xmlns:xlink="http://www.w3.org/1999/xlink" x="0px" y="0px"
	 width="35.164px" height="31.665px" viewBox="0 0 35.164 31.665" style="enable-background:new 0 0 35.164 31.665;"
	 xml:space="preserve">
<g>
	<path style="fill:#F19A97;" d="M18.753,1.723c-2.099,0.094-4.359-1.866-8.218-1.774C1.595,0.161,0.13,3.886,0.13,15.788
		c-0.547,11.798,5.035,13.205,5.035,13.205s4.592-0.425,1.013-3.342c-3.53-2.878,0.047-6.834,0.577-7.788
		c0.53-0.953,0.742,0.212,1.167,2.545c0,0,1.232,5.1,1.835,8.16c0.708,2.333,0.815,3.062,3.888,3.062
		c3.074,0,4.861-0.941,4.551-4.863c1.598-0.105,3.717-0.212,3.717-0.212s-0.635,4.558,2.756,4.558c3.393,0,6.572,1.409,6.68-3.271
		c0.105-4.68,0.47-7.683,1.741-7.982c0.195,6.277,2.137,6.472,2.073,4.044c-0.064-2.577-1.483-12.506-1.483-12.506
		S32.286,1.115,18.753,1.723z"/>
	<path style="fill:#E44533;" d="M8.604,17.241c0,0,0.361,0.162,0.879,0.306c0.555,0.149,1.387,0.295,2.374,0.132
		c0.98-0.152,2.102-0.631,3.073-1.49c0.979-0.846,1.803-2.021,2.393-3.312c0.59-1.292,0.979-2.69,1.186-4.023
		c0.117-0.677,0.184-1.323,0.237-1.939c0.037-0.62,0.046-1.207,0.013-1.749c-0.044-0.538-0.083-1.037-0.194-1.464
		c-0.078-0.435-0.211-0.796-0.314-1.097c-0.094-0.305-0.233-0.517-0.297-0.675c-0.075-0.153-0.114-0.236-0.114-0.236
		s0.043,0.081,0.125,0.229c0.073,0.154,0.224,0.36,0.336,0.66c0.121,0.297,0.275,0.656,0.376,1.092
		c0.134,0.428,0.203,0.929,0.277,1.475c0.063,0.548,0.085,1.144,0.083,1.777c-0.02,0.632-0.053,1.303-0.134,1.977
		c-0.135,1.376-0.451,2.831-0.994,4.224c-0.543,1.386-1.35,2.701-2.387,3.706c-1.025,1.016-2.297,1.662-3.46,1.908
		c-1.167,0.261-2.187,0.146-2.862,0.001c-0.34-0.074-0.636-0.16-0.782-0.212c-0.162-0.054-0.248-0.083-0.248-0.083l-0.032-0.01
		c-0.337-0.111-0.52-0.475-0.408-0.812c0.111-0.338,0.475-0.521,0.812-0.409C8.562,17.222,8.584,17.23,8.604,17.241z"/>
	<circle style="fill:#CA3D29;" cx="6.146" cy="9.595" r="1.192"/>
</g>
</svg>
