<?xml version="1.0" encoding="utf-8"?>
<!-- Generator: Adobe Illustrator 16.0.0, SVG Export Plug-In . SVG Version: 6.00 Build 0)  -->
<!DOCTYPE svg PUBLIC "-//W3C//DTD SVG 1.1//EN" "http://www.w3.org/Graphics/SVG/1.1/DTD/svg11.dtd">
<svg version="1.1" id="Layer_1" xmlns="http://www.w3.org/2000/svg" xmlns:xlink="http://www.w3.org/1999/xlink" x="0px" y="0px"
	 width="18.261px" height="25px" viewBox="0 0 18.261 25" style="enable-background:new 0 0 18.261 25;" xml:space="preserve">
<g>
	<path style="fill:#999999;" d="M26.88,13.184c-0.608,0-1.121,0.479-1.121,1.056v0.416c0-1.184-0.991-2.144-2.239-2.144
		c-0.606,0-1.119,0.48-1.119,1.056v0.416c0-1.184-0.991-2.144-2.239-2.144c-0.608,0-1.121,0.48-1.121,1.056v0.416l-0.031-0.448
		l-0.352-5.472C18.593,6.656,17.985,6.08,17.25,6.08c-0.736,0-1.312,0.608-1.312,1.312v5.28v6.592l-1.184-1.792
		c-0.801-1.217-2.305-1.729-3.616-1.088c-0.32,0.16-0.384,0.512-0.224,0.832l1.631,4.191c0.256,0.672,0.929,1.6,1.44,2.08
		c0,0,3.265,2.688,3.265,3.713v1.279h5.278h2.625h1.279v-1.279c0-1.025,1.983-4.193,1.983-4.193
		c0.385-0.606,0.672-1.729,0.672-2.432v-5.248C29.121,14.144,28.128,13.184,26.88,13.184z"/>
	<path style="fill:#999999;" d="M14.816,10.4c-2.016-2.144-0.704-5.792,2.271-6.08c3.297-0.352,5.121,3.456,3.137,5.984
		c-0.32,0.416,0.256,0.96,0.576,0.576c2.336-2.976,0.513-7.584-3.521-7.392c-3.808,0.16-5.567,4.768-3.04,7.456
		C14.591,11.328,15.167,10.752,14.816,10.4z"/>
</g>
</svg>
