<?xml version="1.0" encoding="utf-8"?>
<!-- Generator: Adobe Illustrator 16.0.0, SVG Export Plug-In . SVG Version: 6.00 Build 0)  -->
<!DOCTYPE svg PUBLIC "-//W3C//DTD SVG 1.1//EN" "http://www.w3.org/Graphics/SVG/1.1/DTD/svg11.dtd">
<svg version="1.1" id="Layer_1" xmlns="http://www.w3.org/2000/svg" xmlns:xlink="http://www.w3.org/1999/xlink" x="0px" y="0px"
	 width="29.393px" height="29.699px" viewBox="0 0 29.393 29.699" style="enable-background:new 0 0 29.393 29.699;"
	 xml:space="preserve">
<g>
	<path style="fill:#D0D2D3;" d="M0.003,23.396c0,0,3.003-18.766,9.579-21.915c4.518-2.164,9.039-1.692,12.075-0.277
		c3.035,1.417,4.317,2.632,6.071,4.992c1.753,2.36,1.841,4.973,1.515,9.039c-0.466,5.802-0.235,5.645-0.1,7.939
		c0.159,2.711,0.7,5.117-2.133,4.911c-2.833-0.207-5.152-1.87-8.997-2.2c-3.844-0.331-7.003,0.278-10.653,0.346
		C3.713,26.298-0.132,26.771,0.003,23.396z"/>
	<circle style="fill:#6D6E70;" cx="13.286" cy="8.792" r="1.055"/>
	<circle style="fill:#6D6E70;" cx="21.228" cy="10.744" r="1.055"/>
	<path style="fill:#6D6E70;" d="M10.796,15.505c0,0,0.168-0.11,0.469-0.278c0.332-0.16,0.64-0.442,1.213-0.705
		c0.26-0.155,0.609-0.247,0.979-0.338c0.388-0.084,0.684-0.116,1.053-0.151c0.753-0.059,1.589-0.041,2.418,0.167
		c0.414,0.112,0.829,0.255,1.153,0.397c0.338,0.116,0.702,0.346,1.04,0.521c0.346,0.174,0.642,0.451,0.924,0.665
		c0.273,0.254,0.486,0.558,0.682,0.806c0.296,0.5,0.478,0.955,0.66,1.21c0.172,0.3,0.27,0.473,0.27,0.473s-0.175-0.072-0.49-0.241
		c-0.146-0.089-0.376-0.191-0.541-0.346c-0.181-0.149-0.384-0.317-0.606-0.502c-0.208-0.132-0.437-0.276-0.676-0.427
		c-0.282-0.109-0.535-0.253-0.842-0.365c-0.314-0.111-0.641-0.225-0.972-0.34c-0.367-0.141-0.676-0.22-0.998-0.293
		c-0.306-0.12-0.657-0.136-0.984-0.2c-0.342-0.04-0.679-0.076-1.005-0.113c-0.34-0.003-0.734-0.066-0.991-0.066
		c-0.271,0.015-0.539-0.027-0.813,0.028c-0.521,0.044-1.08,0.162-1.401,0.132C10.996,15.525,10.796,15.505,10.796,15.505z"/>
	<path style="fill:#6D6E70;" d="M20.173,5.318c0,0,0.116-0.04,0.322-0.089c0.188-0.05,0.544-0.084,0.915,0.001
		c0.379,0.071,0.804,0.248,1.202,0.51c0.396,0.265,0.766,0.61,1.088,0.98c0.654,0.743,1.103,1.603,1.419,2.238
		c0.301,0.646,0.529,1.068,0.529,1.068s-0.435-0.263-0.902-0.814c-0.483-0.538-1.06-1.278-1.651-1.964
		c-0.588-0.693-1.229-1.3-1.826-1.589C20.971,5.524,20.725,5.4,20.5,5.386C20.292,5.349,20.173,5.318,20.173,5.318z"/>
	<path style="fill:#6D6E70;" d="M15.485,3.364c-0.004-0.007-0.098,0.078-0.308,0.154c-0.212,0.074-0.508,0.175-0.872,0.25
		c-0.727,0.15-1.696,0.298-2.639,0.398L10.98,4.268c-0.207,0.042-0.439,0.095-0.555,0.151C10.25,4.5,10.05,4.644,9.862,4.726
		C9.668,4.817,9.486,4.905,9.318,4.984C8.626,5.305,8.102,5.318,8.102,5.318S8.205,5.23,8.378,5.111
		c0.18-0.103,0.394-0.339,0.684-0.541c0.288-0.234,0.577-0.508,0.984-0.79c0.28-0.18,0.521-0.214,0.777-0.284
		c0.25-0.053,0.499-0.098,0.749-0.122c0.991-0.123,1.968-0.058,2.696-0.041C14.997,3.387,15.485,3.364,15.485,3.364z"/>
	<path style="fill:#D0D2D3;" d="M4.725,18.792c0,0-0.877-3.557,1.213-3.557c2.092,0,2.295,0.941,2.498,2.461
		c0.201,1.519-0.541,2.601,1.213,2.532c1.754-0.069,8.703-1.215,9.714-0.609c1.012,0.609,1.688,2.631,0.271,2.969
		c-1.416,0.336-5.861,0.607-5.861,0.607s2.017,0.404,1.679,1.28c-0.337,0.878-1.012,1.688-1.012,1.688s0.54,0.812,0.27,1.618
		c-0.27,0.811-0.187,1.349-0.937,1.485c-0.75,0.135-5.134,1.152-8.102-0.503c-2.969-1.655-3.25-4.327-2.334-6.297
		C4.251,20.497,4.859,19.573,4.725,18.792z"/>
	<path style="fill:#6D6E70;" d="M3.339,22.189c0.223-0.625,0.452-1.255,0.702-1.866c0.233-0.602,0.485-1.265,0.37-1.754l0.005,0.022
		c-0.192-0.666-0.326-1.323-0.296-2.049c0.012-0.358,0.062-0.738,0.241-1.125c0.165-0.375,0.528-0.788,0.991-0.916
		c0.23-0.079,0.416-0.095,0.681-0.107l0.487,0.013c0.319,0.028,0.804,0.068,1.181,0.282c0.409,0.162,0.762,0.557,0.97,0.935
		c0.2,0.386,0.292,0.758,0.362,1.106c0.145,0.629,0.182,1.439,0.156,2.076c-0.008,0.174,0.016,0.244,0.015,0.372
		c0.026,0.019,0.027,0.076,0-0.008c-0.098-0.022,0.04-0.036,0.032-0.008l0.333,0.011c1.157-0.065,2.514-0.281,3.785-0.427
		c1.297-0.146,2.594-0.282,3.935-0.335c0.333-0.017,0.676-0.019,1.024-0.01c0.381,0.038,0.671,0.007,1.233,0.214
		c0.835,0.416,1.328,1.25,1.513,2.03c0.098,0.412,0.103,0.9-0.104,1.403c-0.138,0.225-0.336,0.477-0.546,0.618
		c-0.237,0.111-0.449,0.229-0.727,0.279l-1.942,0.166c-0.652,0.049-1.286,0.119-1.957,0.123l-1.987,0.03l0.048-0.691
		c0.381,0.112,0.727,0.245,1.072,0.438c0.17,0.095,0.339,0.212,0.493,0.364c0.147,0.145,0.297,0.377,0.271,0.639
		c-0.005,0.099-0.063,0.277-0.112,0.333l-0.146,0.228l-0.296,0.456c-0.185,0.308-0.438,0.589-0.684,0.853
		c0.191-0.311,0.371-0.604,0.495-0.952l0.218-0.496l0.109-0.247c0.052-0.095,0.022-0.105,0.033-0.179
		c-0.009-0.214-0.319-0.396-0.616-0.512c-0.304-0.117-0.653-0.193-0.974-0.24l-2.491-0.347l2.538-0.343l1.897-0.259
		c0.626-0.062,1.272-0.22,1.909-0.312l1.921-0.313c0.036-0.021,0.106-0.083,0.17-0.092c0.04-0.045,0.034-0.081,0.076-0.111
		c0.014-0.112,0.04-0.286-0.028-0.507c-0.146-0.45-0.407-0.83-0.737-0.991c-0.047-0.02-0.419-0.053-0.687-0.05
		c-0.298,0.005-0.604,0.006-0.918,0.026c-1.254,0.065-2.538,0.23-3.818,0.379c-1.309,0.125-2.522,0.319-3.957,0.377
		c-0.214-0.012-0.414-0.015-0.637-0.048c-0.287-0.121-0.542-0.111-0.818-0.436c-0.302-0.291-0.334-0.579-0.402-0.865
		c-0.005-0.198-0.021-0.453-0.005-0.603c0.049-0.658,0.061-1.152-0.045-1.799c-0.095-0.618-0.214-0.99-0.555-1.175
		c-0.083-0.061-0.181-0.107-0.298-0.128c-0.115-0.03-0.199-0.083-0.383-0.089l-0.484-0.047c-0.055,0.005-0.204-0.004-0.278,0.021
		c-0.332,0.032-0.595,0.48-0.666,1.069c-0.081,0.57-0.048,1.219,0.032,1.817l0.005,0.022c0.036,0.424-0.088,0.787-0.217,1.111
		c-0.144,0.317-0.304,0.614-0.468,0.906C4.034,21.057,3.678,21.615,3.339,22.189z"/>
</g>
</svg>
